<?xml version="1.0" encoding="UTF-8" standalone="no"?>
<svg
   xmlns:dc="http://purl.org/dc/elements/1.1/"
   xmlns:cc="http://creativecommons.org/ns#"
   xmlns:rdf="http://www.w3.org/1999/02/22-rdf-syntax-ns#"
   xmlns:svg="http://www.w3.org/2000/svg"
   xmlns="http://www.w3.org/2000/svg"
   xmlns:sodipodi="http://sodipodi.sourceforge.net/DTD/sodipodi-0.dtd"
   xmlns:inkscape="http://www.inkscape.org/namespaces/inkscape"
   inkscape:version="1.0beta1 (32d4812, 2019-09-19)"
   sodipodi:docname="LevitoPy.svg"
   id="svg8"
   version="1.1"
   viewBox="0 0 482.5423 512.60065"
   height="512.60065mm"
   width="482.5423mm">
  <defs
     id="defs2">
    <filter
       height="1.3862708"
       y="-0.1931354"
       width="1.069358"
       x="-0.034679005"
       id="filter1090"
       style="color-interpolation-filters:sRGB"
       inkscape:collect="always">
      <feGaussianBlur
         id="feGaussianBlur1092"
         stdDeviation="5.5920804"
         inkscape:collect="always" />
    </filter>
  </defs>
  <sodipodi:namedview
     fit-margin-bottom="0"
     fit-margin-right="0"
     fit-margin-left="0"
     fit-margin-top="0"
     inkscape:window-maximized="0"
     inkscape:window-y="23"
     inkscape:window-x="0"
     inkscape:window-height="829"
     inkscape:window-width="1402"
     showgrid="false"
     inkscape:document-rotation="0"
     inkscape:current-layer="layer1"
     inkscape:document-units="mm"
     inkscape:cy="1326.5475"
     inkscape:cx="1551.468"
     inkscape:zoom="0.175"
     inkscape:pageshadow="2"
     inkscape:pageopacity="0.0"
     borderopacity="1.0"
     bordercolor="#666666"
     pagecolor="#ffffff"
     id="base" />
  <metadata
     id="metadata5">
    <rdf:RDF>
      <cc:Work
         rdf:about="">
        <dc:format>image/svg+xml</dc:format>
        <dc:type
           rdf:resource="http://purl.org/dc/dcmitype/StillImage" />
        <dc:title></dc:title>
      </cc:Work>
    </rdf:RDF>
  </metadata>
  <g
     transform="translate(-67.930872,528.21949)"
     id="layer1"
     inkscape:groupmode="layer"
     inkscape:label="Layer 1">
    <path
       inkscape:connector-curvature="0"
       d="m 308.38288,-528.21949 c -0.045,0 -0.65817,0.56216 -1.36219,1.24902 -9.61309,9.37871 -14.90845,20.09032 -15.74426,31.84663 -0.12871,1.81049 -0.057,6.22924 0.12867,7.92562 1.15214,10.52862 5.42659,21.05559 12.2406,30.1439 2.17135,2.89607 3.57783,5.14651 4.86585,7.78658 6.41099,13.14085 5.81818,27.87488 -1.73684,43.1705 -0.37099,0.75113 -0.67276,1.40332 -0.67076,1.44952 h -5.2e-4 c 0.002,0.0462 0.1451,-0.0711 0.31781,-0.26046 6.53849,-7.16856 8.90723,-9.88845 11.46184,-13.15989 7.18577,-9.20216 10.82583,-17.21882 11.68662,-25.73849 0.13522,-1.33625 0.13306,-5.32079 -0.004,-6.60426 -0.55103,-5.17432 -1.94408,-9.93815 -4.37751,-14.97012 -0.896,-1.8528 -1.37223,-2.69373 -2.45359,-4.33359 -1.55954,-2.36503 -2.71449,-3.84051 -7.32307,-9.35604 -1.51747,-1.8161 -3.23069,-3.89239 -3.80752,-4.61417 -4.96451,-6.2121 -7.9365,-11.39246 -9.39168,-16.36956 -2.53676,-8.6764 -0.76334,-17.43173 5.46065,-26.95493 0.43506,-0.66569 0.75452,-1.21026 0.70952,-1.21026 z m -37.61062,52.35856 c -0.0695,-0.0695 -2.89229,2.77947 -3.91604,3.95221 -5.46989,6.26589 -8.55809,12.82346 -9.52552,20.22822 -0.34475,2.63855 -0.32255,6.43054 0.0543,9.31312 1.00052,7.65402 4.43373,15.79565 9.48883,22.50252 1.81087,2.40258 2.79791,3.95878 3.87935,6.11693 4.58074,9.14138 4.75427,19.39848 0.50901,30.09479 -0.55737,1.40433 -1.75168,4.03106 -2.12494,4.67363 -0.11298,0.19455 -0.20567,0.39502 -0.20567,0.44492 0,0.0499 0.0142,0.0904 0.0315,0.0904 0.0306,0 2.59543,-2.78646 4.20802,-4.57182 9.12114,-10.09827 13.05179,-17.03472 14.27458,-25.18862 0.21766,-1.45048 0.21949,-5.89545 0.003,-7.36598 -0.43062,-2.92639 -1.09656,-5.39025 -2.19728,-8.12765 -1.67857,-4.17447 -3.21814,-6.59847 -7.23109,-11.3864 -0.80081,-0.95546 -2.20306,-2.62887 -3.11609,-3.71864 -6.25242,-7.46268 -8.86919,-12.2801 -9.75444,-17.95756 -0.2149,-1.37824 -0.2121,-4.47069 0.005,-5.88439 0.60876,-3.96097 2.20562,-7.87275 4.89996,-12.00443 0.4187,-0.64204 0.74137,-1.18719 0.71727,-1.21129 z m 85.83197,0.82629 c -0.0199,0.0199 0.19307,0.37735 0.47335,0.79428 2.14265,3.1872 3.71297,6.4847 4.56148,9.57667 1.93666,7.05716 0.44592,13.63475 -4.78524,21.11087 -1.45985,2.08635 -2.44459,3.31078 -7.49773,9.32397 -3.22427,3.83685 -4.76123,6.067 -6.0911,8.83719 -1.88049,3.91713 -2.93976,7.47895 -3.39876,11.42979 -0.15692,1.35051 -0.13014,4.81189 0.0475,6.17069 0.4767,3.64551 1.41534,6.66824 3.18482,10.25467 1.35069,2.73761 2.66859,4.86465 4.75371,7.67238 2.16796,2.91928 4.35447,5.48476 8.78035,10.30171 0.99668,1.08474 1.8275,1.95729 1.8464,1.93837 0.0189,-0.0188 -0.28857,-0.69109 -0.68317,-1.49344 -2.42893,-4.93885 -3.90655,-9.77982 -4.49791,-14.73605 -0.18767,-1.57282 -0.25489,-4.90887 -0.13074,-6.48126 0.37325,-4.72705 1.51958,-8.74334 3.72018,-13.03435 0.94788,-1.84828 1.87169,-3.29753 3.39049,-5.32009 2.1207,-2.82411 3.60768,-5.21213 5.09582,-8.18398 2.69891,-5.38978 4.25394,-10.61051 4.83019,-16.21401 0.22873,-2.22409 0.1256,-6.04496 -0.22996,-8.50903 -1.07719,-7.46514 -4.65566,-14.46747 -10.62726,-20.79718 -1.15318,-1.22234 -2.68546,-2.69819 -2.74246,-2.6412 z"
       style="opacity:1;fill:#dc272a;fill-opacity:1;stroke-width:0.0846667;stop-opacity:1"
       id="path949" />
    <path
       sodipodi:nodetypes="csccccccccccsccccscccscsscscssssccsccscsccccsscccccsccccccccsscc"
       style="opacity:1;fill:#dc272a;fill-opacity:1;stroke-width:0.0846667;stop-opacity:1"
       d="m 296.35752,-139.11042 c -19.60943,-0.28426 -39.26177,-1.36579 -57.61566,-3.17078 -46.838,-4.60624 -88.46043,-13.93749 -123.14767,-27.60824 -1.92169,-0.75736 -2.15259,-0.86989 -2.50664,-1.22158 -0.25443,-0.25273 -0.43731,-0.5328 -0.52615,-0.80577 -0.31342,-0.96297 -14.877088,-55.36444 -14.844318,-55.44982 0.0358,-0.0933 2.0996,-0.77431 3.060438,-1.00986 l 9.55653,32.58755 5.21707,22.61098 6.87916,1.52133 c 27.70717,8.54261 17.84394,5.73362 27.70717,8.54261 3.25195,0.92615 8.78548,2.42623 8.82055,2.39117 0.011,-0.0111 -1.44223,-12.74389 -3.22949,-28.29522 -1.78727,-15.55132 -3.26206,-28.44226 -3.27732,-28.64653 l -0.0277,-0.3714 0.46567,-0.16128 c 1.10883,-0.38407 2.56321,-0.76165 2.61405,-0.67867 0.0291,0.0475 1.57666,13.34928 3.43897,29.55944 l 3.38602,29.47302 0.29698,0.0821 c 0.65859,0.18204 7.47934,1.80574 9.73731,2.31799 13.7414,3.11746 28.56365,5.7965 43.37502,7.83983 3.38866,0.46749 11.0101,1.43983 11.04129,1.40863 0.0109,-0.0109 -1.33874,-14.56166 -2.99921,-32.33502 -1.66046,-17.77335 -2.99494,-32.33928 -2.9655,-32.36872 0.0614,-0.0614 3.08125,-0.0916 3.14124,-0.0315 0.0217,0.0218 1.39829,14.63191 3.05905,32.46694 1.66076,17.83504 3.04918,32.48449 3.08539,32.55434 0.0716,0.13811 1.23957,0.2794 7.66772,0.92751 15.27166,1.53976 30.57997,2.52534 47.371,3.04982 4.63015,0.14463 12.53095,0.28395 12.59284,0.22206 0.0332,-0.0332 -0.20845,-15.09823 -0.53708,-33.47775 -0.32864,-18.37952 -0.58826,-33.42975 -0.57695,-33.44495 0.0349,-0.0469 3.10887,0.15142 3.16141,0.20397 0.0272,0.0272 0.32087,15.06718 0.65262,33.42221 0.33176,18.35504 0.60799,33.38232 0.61385,33.39396 0.0273,0.0543 11.21681,0.0105 16.05498,-0.063 15.47053,-0.23481 29.20046,-0.85838 43.89967,-1.99377 5.39111,-0.41642 11.31576,-0.93784 11.35345,-0.99919 0.004,-0.007 0.36472,-15.28645 0.80055,-33.95372 0.43584,-18.66727 0.80476,-33.95282 0.81982,-33.96788 0.0707,-0.0708 1.30872,-0.22571 2.2153,-0.27729 l 1.00746,-0.0573 -0.0496,1.4825 c -0.14373,4.29326 -1.53026,66.37707 -1.48346,66.42387 0.059,0.059 2.55742,-0.18476 7.47684,-0.72944 20.27888,-2.24528 39.79388,-5.36397 58.547,-9.3564 2.07222,-0.44117 3.82482,-0.81929 3.89467,-0.84027 0.10251,-0.0308 0.1229,-0.18118 0.10574,-0.78004 -0.024,-0.83784 5.07301,-63.47987 5.17335,-63.58022 0.0684,-0.0684 3.06732,-0.0905 3.13471,-0.0231 0.0223,0.0223 -1.11826,14.25139 -2.5345,31.62028 -1.41624,17.36889 -2.57551,31.6791 -2.57615,31.80047 l -0.001,0.22067 2.30716,-0.009 c 16.49055,-4.0444 29.28903,-8.14182 45.33901,-11.91738 12.62283,-58.8267 0,0 12.62283,-58.8267 1.5795,0.12815 4.1625,0.71641 4.22312,0.89829 0.0387,0.11603 -13.81813,58.54335 -14.00065,59.03379 -0.15946,0.4285 -0.62348,0.97638 -0.98548,1.16358 -0.8334,0.43097 -11.39175,4.00484 -16.44366,5.56598 -23.56903,7.28328 -49.82108,12.99663 -78.44367,17.07207 -34.51378,4.91426 -70.45929,7.12675 -107.14567,6.59496 z"
       id="path943"
       inkscape:connector-curvature="0" />
    <path
       style="opacity:1;fill:#dc272a;fill-opacity:1;stroke-width:0.0846667;stop-opacity:1"
       d="m 334.24586,-197.14692 c -1.82484,-0.25387 -3.33167,-0.61628 -5.50334,-1.32361 -3.39761,-1.10665 -5.9861,-2.30913 -11.7417,-5.45465 -6.19228,-3.38417 -9.11855,-4.70595 -12.43781,-5.61805 -4.56662,-1.25487 -9.57373,-1.4116 -13.52264,-0.42327 -3.17805,0.7954 -5.45018,1.91968 -10.76951,5.32898 -4.82826,3.09456 -7.15182,4.31133 -10.18931,5.33579 -2.79958,0.94422 -5.23765,1.3777 -8.38336,1.4905 -4.56562,0.16372 -9.24096,-0.72276 -13.43501,-2.54738 -2.62759,-1.14312 -4.77886,-2.39961 -9.65138,-5.63704 -5.80351,-3.85601 -7.6768,-4.96374 -9.78918,-5.78866 -2.05112,-0.80099 -3.9823,-1.16484 -6.20976,-1.16998 -1.71174,-0.004 -2.92344,0.15325 -4.74134,0.61507 -3.23211,0.82109 -6.21374,2.07725 -12.40366,5.22569 -1.88595,0.95926 -4.1529,2.11096 -5.03767,2.55932 -2.48246,1.25801 -4.15423,1.85327 -6.19359,2.20533 -3.21513,0.55504 -6.15207,0.12599 -9.21575,-1.34628 -2.59169,-1.24546 -4.76191,-2.91709 -8.97466,-6.9128 -3.23006,-3.06366 -4.44359,-4.13242 -6.02747,-5.30844 -2.32415,-1.72567 -4.71113,-2.86457 -6.88827,-3.28661 -2.48747,-0.4822 -5.07032,-0.3797 -7.86993,0.3123 -1.94881,0.48171 -3.53167,1.06208 -8.97467,3.29065 -4.22513,1.72994 -7.07052,2.53941 -10.32933,2.93856 -1.35025,0.16539 -4.75391,0.13911 -5.75733,-0.0444 -3.36949,-0.61638 -5.84147,-1.88994 -8.32856,-4.29089 -0.60296,-0.58209 -1.87729,-1.93464 -2.83183,-3.00567 -3.50946,-3.93775 -5.52207,-5.7134 -8.10128,-7.14748 -2.8788,-1.60066 -5.76022,-2.07894 -8.93975,-1.48389 -1.25699,0.23525 -2.003968,0.45155 -5.241918,1.51791 -3.23829,1.06646 -4.53131,1.41019 -5.88433,1.56429 -2.2927,0.26111 -4.007612,-0.0655 -6.941632,-1.32213 -7.970293,-3.4136 -13.875454,-10.34131 -15.577299,-18.2747 -0.333554,-1.55491 -0.423267,-2.45552 -0.421699,-4.23333 0.0017,-1.92922 0.134723,-2.95034 0.591054,-4.53721 1.099528,-3.82352 3.590034,-6.78101 7.15292,-8.49409 2.56676,-1.23413 4.92702,-1.70433 8.507989,-1.69492 2.437136,0.006 3.941757,0.15996 6.180667,0.63078 1.20137,0.25262 7.29306,1.07326 7.37307,0.99325 0.0239,-0.0239 0.13546,-0.49664 0.24783,-1.05046 1.8205,-8.97249 8.476898,-18.25357 19.599428,-27.32767 7.29303,-5.94986 16.58812,-11.76632 26.00712,-16.27408 7.63231,-3.65268 13.94452,-6.23559 31.56622,-12.91665 3.56235,-1.35063 10.43507,-3.97854 15.27271,-5.83981 15.67217,-6.02984 21.2636,-8.11472 29.13496,-10.86358 25.32231,-8.84312 46.94492,-13.86986 68.453,-15.91366 26.07266,-2.47756 49.61181,-0.6112 76.1622,6.0387 12.60367,3.15676 23.59412,6.62577 46.30813,14.61661 8.34871,2.9371 11.45117,4.00991 16.93334,5.85542 22.61744,7.61393 34.49541,12.25855 45.79431,17.90687 8.3075,4.15293 19.26567,10.65012 25.56761,15.15926 6.56182,4.69508 11.53076,9.30265 14.90811,13.8239 3.46195,4.6345 5.51344,9.38545 6.2285,14.42434 0.0883,0.62243 0.17204,1.14295 0.18603,1.15674 0.014,0.0138 2.10159,-0.35261 4.63912,-0.81419 l 4.61368,-0.83922 1.82099,8.5e-4 c 2.92773,0.001 5.18797,0.25608 7.49917,0.84496 6.34943,1.61784 10.39674,5.43187 11.56031,10.89401 0.25063,1.17653 0.31035,3.43841 0.12739,4.82492 -0.28015,2.12298 -0.89453,4.08499 -1.95804,6.2529 -3.01664,6.14924 -9.08731,11.5531 -16.82404,14.97607 -2.3782,1.05219 -3.38702,1.27211 -5.82281,1.26932 -2.54428,-0.003 -4.09618,-0.26831 -9.56733,-1.63611 -5.10679,-1.27672 -6.57686,-1.54352 -8.509,-1.5443 -0.76169,0 -1.41228,0.0476 -1.82034,0.134 -1.18612,0.25118 -3.43484,1.50934 -5.17715,2.89662 -1.12691,0.89729 -2.11003,1.8164 -5.15218,4.8168 -3.0666,3.02451 -3.90281,3.77846 -5.54567,5.00012 -2.60333,1.9359 -5.62566,3.38076 -8.255,3.94641 -1.28592,0.27664 -3.99201,0.27933 -5.43355,0.005 -2.78342,-0.52892 -5.44744,-1.65962 -9.72178,-4.12629 -5.89777,-3.40353 -7.69078,-4.28481 -10.16,-4.99374 -1.52655,-0.43827 -2.4932,-0.57941 -3.97933,-0.58099 -1.01496,-0.001 -1.52775,0.041 -2.26296,0.18567 -2.97284,0.58503 -5.77784,2.16456 -9.25171,5.20974 -0.53552,0.46944 -2.76437,2.64811 -4.953,4.8415 -4.64115,4.65124 -6.14074,6.00101 -8.33967,7.50643 -3.05874,2.09407 -6.69499,3.54241 -10.287,4.09739 -1.51733,0.23443 -4.64853,0.21701 -6.26533,-0.0349 -4.04533,-0.63019 -7.81549,-2.14932 -13.03867,-5.25373 -0.74506,-0.44283 -2.53576,-1.53379 -3.97933,-2.42434 -3.31057,-2.04235 -4.71057,-2.85198 -6.51933,-3.77018 -4.01328,-2.03729 -7.04725,-2.88455 -10.32934,-2.88455 -3.76913,0 -7.36661,1.15139 -11.8272,3.78535 -1.61549,0.95393 -3.68825,2.35677 -7.18046,4.8597 -4.6709,3.34773 -6.88886,4.79743 -9.24262,6.04117 -2.83331,1.49712 -5.56209,2.45326 -8.40022,2.94336 -1.36406,0.23556 -4.96732,0.29884 -6.31783,0.11095 z m 5.90179,-4.68355 c 3.26709,-0.62363 6.73771,-2.21949 10.94482,-5.03262 0.62978,-0.42111 2.73465,-1.90248 4.67748,-3.29192 5.10108,-3.64811 6.9933,-4.86615 9.63324,-6.201 3.8003,-1.92156 7.14075,-2.89899 10.53185,-3.08163 4.37099,-0.23542 8.36574,0.70298 13.22593,3.10687 2.08882,1.03314 3.67062,1.93936 7.49634,4.29465 4.29372,2.64342 5.46083,3.31406 7.65022,4.39598 2.6493,1.30918 4.48592,1.97713 6.604,2.40177 3.99896,0.80173 7.77654,0.21549 11.87425,-1.84274 2.69707,-1.35471 4.5003,-2.85013 9.50408,-7.88179 1.88595,-1.89646 3.86438,-3.85738 4.39652,-4.35759 4.82719,-4.53766 8.81778,-6.77695 13.30696,-7.46713 1.26674,-0.19475 3.56714,-0.19544 4.90746,-0.001 3.49496,0.50578 6.45732,1.70335 11.76373,4.75562 3.68743,2.12102 4.1846,2.39416 5.79966,3.18627 1.69768,0.83262 3.58268,1.49743 4.86209,1.71478 0.99493,0.16901 2.30515,0.17375 3.23447,0.0117 2.46045,-0.42907 5.64001,-2.15181 8.38518,-4.54323 0.38808,-0.33807 1.9629,-1.85533 3.4996,-3.37168 4.45331,-4.39436 5.78636,-5.51986 8.31855,-7.02342 2.54956,-1.51389 4.15775,-1.97507 6.87911,-1.97271 2.45165,0.002 4.19516,0.29774 9.31334,1.57911 5.48148,1.37232 6.66467,1.58976 8.72067,1.60255 1.92439,0.012 2.66001,-0.19561 5.36608,-1.51417 8.78309,-4.27971 14.86925,-11.78237 14.86925,-18.32993 0,-2.63571 -0.85737,-4.70469 -2.65862,-6.4157 -2.44362,-2.3212 -6.18884,-3.52361 -11.31138,-3.63155 l -2.07433,-0.0437 -5.84046,1.06614 c -3.21226,0.58638 -5.99829,1.06615 -6.19119,1.06615 -0.78804,0 -1.53608,-0.46124 -1.93412,-1.19258 -0.22889,-0.42053 -0.2446,-0.51899 -0.30965,-1.94007 -0.24338,-5.31709 -1.95683,-9.83234 -5.57564,-14.69287 -1.18367,-1.58982 -2.19193,-2.74457 -3.97673,-4.55452 -5.9478,-6.0316 -14.26748,-11.79525 -28.49622,-19.7414 -12.05988,-6.73495 -25.61517,-12.28524 -50.24966,-20.575 -5.77527,-1.94344 -9.51763,-3.2379 -20.02367,-6.92605 -21.99883,-7.72268 -33.3349,-11.26474 -45.68629,-14.27511 -24.75079,-6.03244 -46.32713,-7.81022 -70.43405,-5.80341 -21.10171,1.75664 -42.28876,6.46023 -66.97133,14.86786 -8.33868,2.8404 -14.93638,5.28228 -31.877,11.798 -5.12234,1.97016 -11.98034,4.59239 -15.24,5.82717 -18.60887,7.04914 -25.73809,10.00124 -33.401,13.83082 -15.27055,7.63155 -28.08116,17.41771 -35.05975,26.78249 -3.84822,5.16405 -5.9541,10.01178 -6.46141,14.87414 -0.13566,1.30023 -0.26041,1.66373 -0.73323,2.13655 -0.32863,0.32863 -0.62361,0.48486 -1.12959,0.59825 -0.327888,0.0735 -1.097008,-10e-4 -4.790778,-0.46386 -2.42094,-0.30339 -5.05782,-0.68324 -5.86221,-0.84449 -4.965207,-0.99528 -8.7908,-0.80401 -11.808875,0.59043 -2.281027,1.05389 -4.043381,3.04989 -4.793788,5.42931 -0.408825,1.29633 -0.517909,2.07369 -0.515324,3.67234 0.0033,2.04524 0.363763,3.89835 1.14294,5.87588 2.276493,5.77768 7.07101,10.42328 13.114453,12.70714 1.737614,0.65666 2.563244,0.76033 4.033304,0.50646 1.08319,-0.18706 1.69793,-0.36683 4.77359,-1.39601 1.51342,-0.50642 3.20887,-1.03887 3.76767,-1.18323 3.802468,-0.98228 7.212298,-0.95088 10.437608,0.0961 4.19852,1.36296 7.81619,4.04719 12.25095,9.08995 2.94037,3.34349 4.56603,4.78229 6.26431,5.54427 2.81406,1.26257 7.06491,1.21544 11.55605,-0.12815 1.58702,-0.47479 3.07771,-1.03321 6.26941,-2.34855 4.11644,-1.69643 5.5839,-2.22151 7.747,-2.77202 6.05308,-1.54051 11.46367,-0.90517 16.27232,1.91079 2.54127,1.48817 4.44982,3.02735 8.49268,6.84902 1.09432,1.03445 2.4315,2.27932 2.97151,2.76639 3.21276,2.89775 5.57052,4.30291 8.16216,4.86444 0.92148,0.19965 2.78771,0.20151 3.79877,0.004 1.77714,-0.34755 2.64207,-0.71252 7.41956,-3.13085 7.25861,-3.67423 8.50014,-4.26561 11.049,-5.26297 7.43848,-2.91064 13.37491,-3.03488 19.431,-0.40669 2.06013,0.89405 4.12206,2.13284 9.48267,5.69711 1.79282,1.19204 3.81212,2.50595 4.48733,2.9198 1.31995,0.80902 3.65909,2.04394 4.826,2.54783 5.48341,2.36783 11.96978,2.78536 17.54421,1.12932 2.76789,-0.82227 5.27316,-2.12031 10.22927,-5.29997 3.88816,-2.49451 6.07096,-3.69229 8.42152,-4.62118 2.88771,-1.14116 5.33466,-1.66276 8.65591,-1.84512 4.91793,-0.27004 9.93385,0.60805 14.92376,2.61254 2.38878,0.9596 4.30117,1.90977 9.02316,4.48315 3.82351,2.08373 4.6871,2.53369 6.30151,3.28328 3.73264,1.73312 6.73487,2.68356 9.86366,3.12265 0.1397,0.0196 1.0922,0.0254 2.11667,0.013 1.47979,-0.018 2.0577,-0.0599 2.81146,-0.20379 z m -61.48546,-27.50021 c -46.85376,-0.72762 -90.35368,-5.36699 -127.762,-13.62611 -15.60763,-3.4459 -31.20595,-7.88957 -40.55903,-11.55452 -1.65964,-0.65032 -1.98597,-0.96182 -1.98597,-1.89567 0,-0.82759 0.39565,-1.35589 1.17202,-1.56495 0.47153,-0.12696 0.60602,-0.0937 2.38038,0.58924 5.25755,2.02351 13.31165,4.58026 21.17026,6.72044 35.01163,9.53494 78.61099,15.6478 125.05267,17.53302 13.0298,0.52893 21.73714,0.67325 36.957,0.61258 11.43658,-0.0456 14.02778,-0.0858 22.987,-0.35625 58.05468,-1.75279 120.11752,-9.22166 184.40401,-22.19185 4.94236,-0.99714 4.84059,-0.98879 5.45661,-0.44792 0.81012,0.71129 0.66202,2.13049 -0.27205,2.60701 -0.41978,0.21415 -12.74629,2.67952 -22.45656,4.49143 -63.12027,11.77804 -121.98724,18.02926 -179.45101,19.05633 -3.94358,0.0705 -23.07001,0.0897 -27.09333,0.0272 z m 30.01433,-68.10687 c -2.01261,-0.25808 -3.52555,-0.95563 -4.74133,-2.18603 -1.14243,-1.15618 -1.82242,-2.57823 -2.16974,-4.5376 -0.20308,-1.14565 -0.20413,-3.89413 -0.002,-5.37633 0.64923,-4.76213 2.63417,-10.84889 5.42783,-16.64427 0.67909,-1.40875 0.90955,-1.7284 1.24617,-1.7284 0.39882,0 0.59914,0.22534 1.46211,1.64463 3.66685,6.03071 6.02973,11.35286 6.90281,15.54786 0.56817,2.72999 0.579,5.54713 0.0286,7.44551 -0.80327,2.77066 -2.83225,4.87122 -5.51295,5.70742 -0.75055,0.23413 -1.51906,0.27113 -2.64146,0.12721 z m -37.25333,-5.83691 c -1.7496,-0.24327 -4.33686,-1.97284 -5.42059,-3.62363 -2.19327,-3.34091 -1.02154,-8.26185 3.36606,-14.13647 1.99341,-2.66901 4.72617,-5.66177 7.52925,-8.24559 1.52572,-1.40639 1.76812,-1.59336 2.06564,-1.59336 0.46159,0 0.63977,0.26079 0.88265,1.29186 0.65483,2.77986 1.23848,6.19038 1.53934,8.99514 0.20641,1.9242 0.20761,6.11207 0.002,7.56816 -0.56326,3.99213 -1.87839,6.66379 -4.08019,8.28884 -1.5991,1.18023 -3.85284,1.73752 -5.88434,1.45505 z m 73.29025,-0.54693 c -1.19222,-0.24832 -2.16726,-0.67273 -3.05925,-1.33163 -4.29963,-3.17608 -5.53479,-10.98493 -3.62469,-22.91587 0.25525,-1.59438 0.36044,-1.80555 0.89936,-1.80555 0.35406,0 0.55988,0.13929 2.23917,1.51549 2.46119,2.01698 5.56735,5.00206 7.25072,6.96811 4.99305,5.83147 6.38282,10.42799 4.23055,13.99216 -0.40456,0.66995 -1.58931,1.85729 -2.35911,2.36426 -0.70035,0.46123 -1.80971,1.0278 -2.286,1.16749 -0.53999,0.15838 -2.61134,0.18704 -3.29075,0.0455 z m -106.89335,-13.20779 c -0.85094,-0.19265 -1.34997,-0.37461 -2.15064,-0.78419 -0.60733,-0.31068 -0.84851,-0.49672 -1.31234,-1.01234 -1.08801,-1.2095 -1.87264,-2.55805 -2.17539,-3.73887 -0.54681,-2.1327 0.0735,-4.48113 1.73678,-6.57557 0.59466,-0.74881 2.207,-2.27965 3.13002,-2.97181 3.46485,-2.59825 8.7831,-5.2345 14.34748,-7.11202 1.46617,-0.49471 1.79326,-0.48399 1.98467,0.0651 0.0796,0.22841 0.0352,0.53558 -0.29111,2.01262 -2.58993,11.72358 -6.5604,18.49175 -11.72874,19.99304 -0.82403,0.23936 -2.73553,0.30633 -3.54073,0.12403 z m 138.46277,-1.8309 c -1.1634,-0.16777 -2.3609,-0.64784 -3.50429,-1.40484 -0.92673,-0.61356 -2.55124,-2.23582 -3.3961,-3.39139 -1.94969,-2.66674 -3.68223,-6.30534 -5.19021,-10.9002 -0.58779,-1.79102 -1.32907,-4.3958 -1.32907,-4.6702 0,-0.29028 0.35816,-0.62146 0.67208,-0.62146 0.31183,0 1.65622,0.35905 3.66633,0.97917 5.14308,1.58669 9.85545,3.7746 12.76426,5.92636 1.15281,0.85278 2.54638,2.25575 3.15779,3.17909 1.69272,2.55635 1.6694,5.30036 -0.0673,7.91038 -0.98349,1.4781 -1.82312,2.13595 -3.38687,2.65363 -1.20064,0.39747 -2.25299,0.50294 -3.38667,0.33946 z"
       id="path937"
       inkscape:connector-curvature="0" />
    <ellipse
       ry="34.745037"
       rx="193.50314"
       cy="-58.264755"
       cx="305.75635"
       id="path1056"
       style="opacity:0.5;fill:#000000;fill-opacity:1;stroke:none;stroke-width:1.046;stroke-dasharray:8.368, 1.04600000000000004;stroke-opacity:1;filter:url(#filter1090)" />
  </g>
</svg>
